<!DOCTYPE svg PUBLIC "-//W3C//DTD SVG 1.1//EN" "http://www.w3.org/Graphics/SVG/1.1/DTD/svg11.dtd">
<!-- Uploaded to: SVG Repo, www.svgrepo.com, Transformed by: SVG Repo Mixer Tools -->
<svg width="800px" height="800px" viewBox="0 0 48 48" xmlns="http://www.w3.org/2000/svg" fill="#ffffff">
<g id="SVGRepo_bgCarrier" stroke-width="0"/>
<g id="SVGRepo_tracerCarrier" stroke-linecap="round" stroke-linejoin="round"/>
<g id="SVGRepo_iconCarrier"> <title>chart-data-sets</title> <g id="Layer_2" data-name="Layer 2"> <g id="invisible_box" data-name="invisible box"> <rect width="48" height="48" fill="none"/> </g> <g id="icons_Q2" data-name="icons Q2"> <circle cx="14" cy="12" r="2"/> <circle cx="14" cy="22" r="2"/> <circle cx="19" cy="17" r="2"/> <circle cx="36" cy="34" r="2"/> <circle cx="36" cy="24" r="2"/> <circle cx="31" cy="29" r="2"/> <path d="M41.7,20A2,2,0,0,0,44,18V6a2,2,0,0,0-2-2H30a2,2,0,0,0-2,2.3A2.1,2.1,0,0,0,30.1,8h7.1L8,37.2V6A2,2,0,0,0,4,6V44H42a2,2,0,0,0,0-4H10.8L40,10.8v7.1A2.1,2.1,0,0,0,41.7,20Z"/> </g> </g> </g>
</svg>