<svg xmlns="http://www.w3.org/2000/svg" data-name="Layer 1" viewBox="0 0 48 48" id="datacomputing"><path d="M14.463 14.772a.75.75 0 0 0 .75-.75V4.144H32.787v9.878a.75.75 0 0 0 1.5 0V4.073a1.431 1.431 0 0 0-1.429-1.429H15.142a1.431 1.431 0 0 0-1.429 1.429v9.949A.75.75 0 0 0 14.463 14.772zM15.022 19.335H32.978a2.234 2.234 0 0 0 2.219-1.9l.164-1.055a.749.749 0 0 0-.741-.865H25.6a.748.748 0 0 0-.295.06 3.961 3.961 0 0 1-1.3.288 2.323 2.323 0 0 1-1.008-.247.741.741 0 0 0-.376-.1H13.38a.749.749 0 0 0-.741.865l.164 1.055A2.234 2.234 0 0 0 15.022 19.335zm7.417-2.321A3.831 3.831 0 0 0 24 17.362a5.249 5.249 0 0 0 1.738-.348h8.007l-.03.19a.742.742 0 0 1-.737.631H15.022a.742.742 0 0 1-.737-.631l-.03-.19zM1.833 40.793a.75.75 0 0 0 .75-.75V30.165H20.157v9.878a.75.75 0 0 0 1.5 0v-9.95a1.43 1.43 0 0 0-1.428-1.428H2.512a1.43 1.43 0 0 0-1.429 1.428v9.95A.75.75 0 0 0 1.833 40.793zM21.99 41.534H12.965a.765.765 0 0 0-.294.06 3.954 3.954 0 0 1-1.3.288 2.315 2.315 0 0 1-1.007-.247.752.752 0 0 0-.377-.1H.75a.749.749 0 0 0-.741.865l.164 1.056a2.235 2.235 0 0 0 2.22 1.9H20.347a2.235 2.235 0 0 0 2.22-1.9l.164-1.056a.749.749 0 0 0-.741-.865zm-.9 1.69a.743.743 0 0 1-.738.632H2.393a.743.743 0 0 1-.738-.632l-.03-.19H9.809a3.811 3.811 0 0 0 1.561.348 5.262 5.262 0 0 0 1.739-.348h8.006zM26.343 30.093v9.95a.75.75 0 0 0 1.5 0V30.165H45.417v9.878a.75.75 0 1 0 1.5 0v-9.95a1.43 1.43 0 0 0-1.429-1.428H27.772A1.43 1.43 0 0 0 26.343 30.093zM47.82 41.8a.749.749 0 0 0-.57-.262H38.225a.761.761 0 0 0-.294.06 3.962 3.962 0 0 1-1.3.288 2.315 2.315 0 0 1-1.007-.247.751.751 0 0 0-.376-.1H26.01a.749.749 0 0 0-.741.865l.164 1.056a2.235 2.235 0 0 0 2.22 1.9H45.607a2.235 2.235 0 0 0 2.22-1.9l.164-1.056A.75.75 0 0 0 47.82 41.8zm-1.475 1.428a.743.743 0 0 1-.738.632H27.653a.743.743 0 0 1-.738-.632l-.03-.19h8.184a3.815 3.815 0 0 0 1.561.348 5.262 5.262 0 0 0 1.739-.348h8.006zM35.88 27.116a.75.75 0 0 0 1.5 0V24.448a.75.75 0 0 0-.75-.75H24.665V20.92a.75.75 0 0 0-1.5 0V23.7H11.37a.75.75 0 0 0-.75.75v2.668a.75.75 0 1 0 1.5 0V25.2H35.88z" fill="#000d12" class="color000000 svgShape"></path><path d="M19.042 13.939a.75.75 0 0 1-.75-.75V9.721a.75.75 0 0 1 1.5 0v3.468A.75.75 0 0 1 19.042 13.939zM22.348 13.939a.75.75 0 0 1-.75-.75V10.712a.75.75 0 0 1 1.5 0v2.477A.75.75 0 0 1 22.348 13.939zM25.652 13.956a.75.75 0 0 1-.75-.75V7.567a.75.75 0 0 1 1.5 0v5.639A.75.75 0 0 1 25.652 13.956zM28.958 13.956a.75.75 0 0 1-.75-.75V9.458a.75.75 0 1 1 1.5 0v3.748A.75.75 0 0 1 28.958 13.956zM6.393 40a.75.75 0 0 1-.75-.75V35.781a.75.75 0 0 1 1.5 0v3.468A.75.75 0 0 1 6.393 40zM9.7 40a.75.75 0 0 1-.75-.75V36.772a.75.75 0 0 1 1.5 0v2.477A.75.75 0 0 1 9.7 40zM13 40.016a.75.75 0 0 1-.75-.75V33.627a.75.75 0 0 1 1.5 0v5.639A.75.75 0 0 1 13 40.016zM16.307 40.016a.75.75 0 0 1-.75-.75V35.519a.75.75 0 1 1 1.5 0v3.747A.75.75 0 0 1 16.307 40.016zM31.693 40a.75.75 0 0 1-.75-.75V35.781a.75.75 0 1 1 1.5 0v3.468A.75.75 0 0 1 31.693 40zM35 40a.75.75 0 0 1-.75-.75V36.772a.75.75 0 0 1 1.5 0v2.477A.75.75 0 0 1 35 40zM38.3 40.016a.75.75 0 0 1-.75-.75V33.627a.75.75 0 0 1 1.5 0v5.639A.75.75 0 0 1 38.3 40.016zM41.607 40.016a.75.75 0 0 1-.75-.75V35.519a.75.75 0 0 1 1.5 0v3.747A.75.75 0 0 1 41.607 40.016z" fill="#000d12" class="color000000 svgShape"></path></svg>