<svg xmlns="http://www.w3.org/2000/svg" width="512pt" height="512pt" viewBox="0 0 512 512" id="growth-analysis"><path d="M45 150c-8.269531 0-15-6.730469-15-15h-30c0 19.554688 12.539062 36.226562 30 42.421875v32.578125h30v-32.578125c17.460938-6.195313 30-22.867187 30-42.421875 0-24.8125-20.1875-45-45-45-8.269531 0-15-6.730469-15-15s6.730469-15 15-15 15 6.730469 15 15h30c0-19.554688-12.539062-36.226562-30-42.421875v-32.578125h-30v32.578125c-17.460938 6.195313-30 22.867187-30 42.421875 0 24.8125 20.1875 45 45 45 8.269531 0 15 6.730469 15 15s-6.730469 15-15 15zm0 0M151 361h-151v151h151c0-15.101562 0-135.964844 0-151zm-121 30h91v30h-91zm91 91h-91v-31h91zm0 0M331 301h-150v211h150c0-29.730469 0-181.484375 0-211zm-120 30h90v30h-90zm0 60h90v30h-90zm90 91h-90v-31h90zm0 0M512 180h-151v332h151c0-213.300781 0-161.394531 0-332zm-121 30h91v30h-91zm0 60h91v31h-91zm0 61h91v30h-91zm0 60h91v30h-91zm91 91h-91v-31h91zm0 0"></path><path d="m512 0h-120v30h70.09375l-205.273438 174.609375-59.90625-59.90625-191.523437 159.777344 19.21875 23.039062 170.476563-142.222656 60.09375 60.09375 226.820312-192.9375v67.546875h30zm0 0"></path></svg>