<svg xmlns="http://www.w3.org/2000/svg" viewBox="0 0 64 64" id="LineGraph"><g data-name="Outline" fill="#000d12" class="color000000 svgShape"><path d="M59 8a3 3 0 1 0-2.947-2.472l-9.1 5.21A2.973 2.973 0 0 0 45 10a2.988 2.988 0 0 0-1.822 5.366l-4.359 13.448-3.7-7.7A3 3 0 1 0 30 19a2.951 2.951 0 0 0 .3 1.285L22.285 28.3a2.98 2.98 0 0 0-2.946.2l-7.489-5.611A2.949 2.949 0 0 0 12 22a3.007 3.007 0 1 0-1.339 2.5l7.489 5.616a2.991 2.991 0 1 0 5.549-.4l8.016-8.016a2.732 2.732 0 0 0 1.6.269l4.613 9.6-5 15.436a2.986 2.986 0 0 0-2.538 1.545l-6.443-1.071a2.994 2.994 0 1 0-5.89 1.08l-7.132 4.16A2.97 2.97 0 0 0 9 52a3 3 0 1 0 2.943 2.441l7.132-4.16a2.959 2.959 0 0 0 4.535-.831l6.443 1.071a3 3 0 1 0 4.769-2.887l4.359-13.448 3.7 7.7A3 3 0 1 0 48 44a2.96 2.96 0 0 0-.35-1.376l10.155-10.876a3.067 3.067 0 1 0-1.455-1.372L46.2 41.252a2.727 2.727 0 0 0-1.507-.22l-4.613-9.6 5-15.436a3 3 0 0 0 2.87-3.52l9.1-5.21A2.973 2.973 0 0 0 59 8Zm0-4a1 1 0 1 1-1 1 1 1 0 0 1 1-1ZM9 23a1 1 0 1 1 1-1 1 1 0 0 1-1 1Zm12 9a1 1 0 1 1 1-1 1 1 0 0 1-1 1Zm12-12a1 1 0 1 1 1-1 1 1 0 0 1-1 1ZM9 56a1 1 0 1 1 1-1 1 1 0 0 1-1 1Zm12-7a1 1 0 1 1 1-1 1 1 0 0 1-1 1Zm12 2a1 1 0 1 1 1-1 1 1 0 0 1-1 1Zm26-23a1 1 0 1 1-1 1 1 1 0 0 1 1-1ZM45 43a1 1 0 1 1-1 1 1 1 0 0 1 1-1Zm0-29a1 1 0 1 1 1-1 1 1 0 0 1-1 1Z" fill="#000d12" class="color000000 svgShape"></path><path d="M61 60H4V3a1 1 0 0 0-2 0v58a1 1 0 0 0 1 1h58a1 1 0 0 0 0-2Z" fill="#000d12" class="color000000 svgShape"></path></g></svg>